<?xml version="1.0" encoding="utf-8"?>
<svg xmlns="http://www.w3.org/2000/svg" xmlns:xlink="http://www.w3.org/1999/xlink" width="600" height="370" viewBox="0 0 2400 1480">
<defs>
  <clipPath id="clip600">
    <rect x="0" y="0" width="2400" height="1480"/>
  </clipPath>
</defs>
<path clip-path="url(#clip600)" d="
M0 1480 L2400 1480 L2400 0 L0 0  Z
  " fill="#ffffff" fill-rule="evenodd" fill-opacity="1"/>
<defs>
  <clipPath id="clip601">
    <rect x="480" y="0" width="1681" height="1480"/>
  </clipPath>
</defs>
<path clip-path="url(#clip600)" d="
M193.885 1367.31 L2352.76 1367.31 L2352.76 47.2441 L193.885 47.2441  Z
  " fill="#ffffff" fill-rule="evenodd" fill-opacity="1"/>
<defs>
  <clipPath id="clip602">
    <rect x="193" y="47" width="2160" height="1321"/>
  </clipPath>
</defs>
<polyline clip-path="url(#clip602)" style="stroke:#000000; stroke-width:2; stroke-opacity:0.1; fill:none" points="
  254.985,1367.31 254.985,47.2441 
  "/>
<polyline clip-path="url(#clip602)" style="stroke:#000000; stroke-width:2; stroke-opacity:0.1; fill:none" points="
  662.319,1367.31 662.319,47.2441 
  "/>
<polyline clip-path="url(#clip602)" style="stroke:#000000; stroke-width:2; stroke-opacity:0.1; fill:none" points="
  1069.65,1367.31 1069.65,47.2441 
  "/>
<polyline clip-path="url(#clip602)" style="stroke:#000000; stroke-width:2; stroke-opacity:0.1; fill:none" points="
  1476.99,1367.31 1476.99,47.2441 
  "/>
<polyline clip-path="url(#clip602)" style="stroke:#000000; stroke-width:2; stroke-opacity:0.1; fill:none" points="
  1884.32,1367.31 1884.32,47.2441 
  "/>
<polyline clip-path="url(#clip602)" style="stroke:#000000; stroke-width:2; stroke-opacity:0.1; fill:none" points="
  2291.66,1367.31 2291.66,47.2441 
  "/>
<polyline clip-path="url(#clip602)" style="stroke:#000000; stroke-width:2; stroke-opacity:0.1; fill:none" points="
  193.885,1117.85 2352.76,1117.85 
  "/>
<polyline clip-path="url(#clip602)" style="stroke:#000000; stroke-width:2; stroke-opacity:0.1; fill:none" points="
  193.885,842.32 2352.76,842.32 
  "/>
<polyline clip-path="url(#clip602)" style="stroke:#000000; stroke-width:2; stroke-opacity:0.1; fill:none" points="
  193.885,566.787 2352.76,566.787 
  "/>
<polyline clip-path="url(#clip602)" style="stroke:#000000; stroke-width:2; stroke-opacity:0.1; fill:none" points="
  193.885,291.254 2352.76,291.254 
  "/>
<polyline clip-path="url(#clip600)" style="stroke:#000000; stroke-width:4; stroke-opacity:1; fill:none" points="
  193.885,1367.31 2352.76,1367.31 
  "/>
<polyline clip-path="url(#clip600)" style="stroke:#000000; stroke-width:4; stroke-opacity:1; fill:none" points="
  193.885,1367.31 193.885,47.2441 
  "/>
<polyline clip-path="url(#clip600)" style="stroke:#000000; stroke-width:4; stroke-opacity:1; fill:none" points="
  254.985,1367.31 254.985,1351.47 
  "/>
<polyline clip-path="url(#clip600)" style="stroke:#000000; stroke-width:4; stroke-opacity:1; fill:none" points="
  662.319,1367.31 662.319,1351.47 
  "/>
<polyline clip-path="url(#clip600)" style="stroke:#000000; stroke-width:4; stroke-opacity:1; fill:none" points="
  1069.65,1367.31 1069.65,1351.47 
  "/>
<polyline clip-path="url(#clip600)" style="stroke:#000000; stroke-width:4; stroke-opacity:1; fill:none" points="
  1476.99,1367.31 1476.99,1351.47 
  "/>
<polyline clip-path="url(#clip600)" style="stroke:#000000; stroke-width:4; stroke-opacity:1; fill:none" points="
  1884.32,1367.31 1884.32,1351.47 
  "/>
<polyline clip-path="url(#clip600)" style="stroke:#000000; stroke-width:4; stroke-opacity:1; fill:none" points="
  2291.66,1367.31 2291.66,1351.47 
  "/>
<polyline clip-path="url(#clip600)" style="stroke:#000000; stroke-width:4; stroke-opacity:1; fill:none" points="
  336.452,1367.31 336.452,1359.39 
  "/>
<polyline clip-path="url(#clip600)" style="stroke:#000000; stroke-width:4; stroke-opacity:1; fill:none" points="
  417.919,1367.31 417.919,1359.39 
  "/>
<polyline clip-path="url(#clip600)" style="stroke:#000000; stroke-width:4; stroke-opacity:1; fill:none" points="
  499.386,1367.31 499.386,1359.39 
  "/>
<polyline clip-path="url(#clip600)" style="stroke:#000000; stroke-width:4; stroke-opacity:1; fill:none" points="
  580.852,1367.31 580.852,1359.39 
  "/>
<polyline clip-path="url(#clip600)" style="stroke:#000000; stroke-width:4; stroke-opacity:1; fill:none" points="
  743.786,1367.31 743.786,1359.39 
  "/>
<polyline clip-path="url(#clip600)" style="stroke:#000000; stroke-width:4; stroke-opacity:1; fill:none" points="
  825.253,1367.31 825.253,1359.39 
  "/>
<polyline clip-path="url(#clip600)" style="stroke:#000000; stroke-width:4; stroke-opacity:1; fill:none" points="
  906.72,1367.31 906.72,1359.39 
  "/>
<polyline clip-path="url(#clip600)" style="stroke:#000000; stroke-width:4; stroke-opacity:1; fill:none" points="
  988.187,1367.31 988.187,1359.39 
  "/>
<polyline clip-path="url(#clip600)" style="stroke:#000000; stroke-width:4; stroke-opacity:1; fill:none" points="
  1151.12,1367.31 1151.12,1359.39 
  "/>
<polyline clip-path="url(#clip600)" style="stroke:#000000; stroke-width:4; stroke-opacity:1; fill:none" points="
  1232.59,1367.31 1232.59,1359.39 
  "/>
<polyline clip-path="url(#clip600)" style="stroke:#000000; stroke-width:4; stroke-opacity:1; fill:none" points="
  1314.05,1367.31 1314.05,1359.39 
  "/>
<polyline clip-path="url(#clip600)" style="stroke:#000000; stroke-width:4; stroke-opacity:1; fill:none" points="
  1395.52,1367.31 1395.52,1359.39 
  "/>
<polyline clip-path="url(#clip600)" style="stroke:#000000; stroke-width:4; stroke-opacity:1; fill:none" points="
  1558.45,1367.31 1558.45,1359.39 
  "/>
<polyline clip-path="url(#clip600)" style="stroke:#000000; stroke-width:4; stroke-opacity:1; fill:none" points="
  1639.92,1367.31 1639.92,1359.39 
  "/>
<polyline clip-path="url(#clip600)" style="stroke:#000000; stroke-width:4; stroke-opacity:1; fill:none" points="
  1721.39,1367.31 1721.39,1359.39 
  "/>
<polyline clip-path="url(#clip600)" style="stroke:#000000; stroke-width:4; stroke-opacity:1; fill:none" points="
  1802.85,1367.31 1802.85,1359.39 
  "/>
<polyline clip-path="url(#clip600)" style="stroke:#000000; stroke-width:4; stroke-opacity:1; fill:none" points="
  1965.79,1367.31 1965.79,1359.39 
  "/>
<polyline clip-path="url(#clip600)" style="stroke:#000000; stroke-width:4; stroke-opacity:1; fill:none" points="
  2047.26,1367.31 2047.26,1359.39 
  "/>
<polyline clip-path="url(#clip600)" style="stroke:#000000; stroke-width:4; stroke-opacity:1; fill:none" points="
  2128.72,1367.31 2128.72,1359.39 
  "/>
<polyline clip-path="url(#clip600)" style="stroke:#000000; stroke-width:4; stroke-opacity:1; fill:none" points="
  2210.19,1367.31 2210.19,1359.39 
  "/>
<polyline clip-path="url(#clip600)" style="stroke:#000000; stroke-width:4; stroke-opacity:1; fill:none" points="
  193.885,1117.85 219.792,1117.85 
  "/>
<polyline clip-path="url(#clip600)" style="stroke:#000000; stroke-width:4; stroke-opacity:1; fill:none" points="
  193.885,842.32 219.792,842.32 
  "/>
<polyline clip-path="url(#clip600)" style="stroke:#000000; stroke-width:4; stroke-opacity:1; fill:none" points="
  193.885,566.787 219.792,566.787 
  "/>
<polyline clip-path="url(#clip600)" style="stroke:#000000; stroke-width:4; stroke-opacity:1; fill:none" points="
  193.885,291.254 219.792,291.254 
  "/>
<polyline clip-path="url(#clip600)" style="stroke:#000000; stroke-width:4; stroke-opacity:1; fill:none" points="
  193.885,1338.28 206.838,1338.28 
  "/>
<polyline clip-path="url(#clip600)" style="stroke:#000000; stroke-width:4; stroke-opacity:1; fill:none" points="
  193.885,1283.17 206.838,1283.17 
  "/>
<polyline clip-path="url(#clip600)" style="stroke:#000000; stroke-width:4; stroke-opacity:1; fill:none" points="
  193.885,1228.07 206.838,1228.07 
  "/>
<polyline clip-path="url(#clip600)" style="stroke:#000000; stroke-width:4; stroke-opacity:1; fill:none" points="
  193.885,1172.96 206.838,1172.96 
  "/>
<polyline clip-path="url(#clip600)" style="stroke:#000000; stroke-width:4; stroke-opacity:1; fill:none" points="
  193.885,1062.75 206.838,1062.75 
  "/>
<polyline clip-path="url(#clip600)" style="stroke:#000000; stroke-width:4; stroke-opacity:1; fill:none" points="
  193.885,1007.64 206.838,1007.64 
  "/>
<polyline clip-path="url(#clip600)" style="stroke:#000000; stroke-width:4; stroke-opacity:1; fill:none" points="
  193.885,952.534 206.838,952.534 
  "/>
<polyline clip-path="url(#clip600)" style="stroke:#000000; stroke-width:4; stroke-opacity:1; fill:none" points="
  193.885,897.427 206.838,897.427 
  "/>
<polyline clip-path="url(#clip600)" style="stroke:#000000; stroke-width:4; stroke-opacity:1; fill:none" points="
  193.885,787.214 206.838,787.214 
  "/>
<polyline clip-path="url(#clip600)" style="stroke:#000000; stroke-width:4; stroke-opacity:1; fill:none" points="
  193.885,732.107 206.838,732.107 
  "/>
<polyline clip-path="url(#clip600)" style="stroke:#000000; stroke-width:4; stroke-opacity:1; fill:none" points="
  193.885,677 206.838,677 
  "/>
<polyline clip-path="url(#clip600)" style="stroke:#000000; stroke-width:4; stroke-opacity:1; fill:none" points="
  193.885,621.894 206.838,621.894 
  "/>
<polyline clip-path="url(#clip600)" style="stroke:#000000; stroke-width:4; stroke-opacity:1; fill:none" points="
  193.885,511.681 206.838,511.681 
  "/>
<polyline clip-path="url(#clip600)" style="stroke:#000000; stroke-width:4; stroke-opacity:1; fill:none" points="
  193.885,456.574 206.838,456.574 
  "/>
<polyline clip-path="url(#clip600)" style="stroke:#000000; stroke-width:4; stroke-opacity:1; fill:none" points="
  193.885,401.467 206.838,401.467 
  "/>
<polyline clip-path="url(#clip600)" style="stroke:#000000; stroke-width:4; stroke-opacity:1; fill:none" points="
  193.885,346.361 206.838,346.361 
  "/>
<polyline clip-path="url(#clip600)" style="stroke:#000000; stroke-width:4; stroke-opacity:1; fill:none" points="
  193.885,236.148 206.838,236.148 
  "/>
<polyline clip-path="url(#clip600)" style="stroke:#000000; stroke-width:4; stroke-opacity:1; fill:none" points="
  193.885,181.041 206.838,181.041 
  "/>
<polyline clip-path="url(#clip600)" style="stroke:#000000; stroke-width:4; stroke-opacity:1; fill:none" points="
  193.885,125.934 206.838,125.934 
  "/>
<polyline clip-path="url(#clip600)" style="stroke:#000000; stroke-width:4; stroke-opacity:1; fill:none" points="
  193.885,70.8279 206.838,70.8279 
  "/>
<g clip-path="url(#clip600)">
<text style="fill:#000000; fill-opacity:1; font-family:Arial,Helvetica Neue,Helvetica,sans-serif; font-size:53px; text-anchor:middle;" transform="rotate(0, 254.985, 1426.11)" x="254.985" y="1426.11">0.0</text>
</g>
<g clip-path="url(#clip600)">
<text style="fill:#000000; fill-opacity:1; font-family:Arial,Helvetica Neue,Helvetica,sans-serif; font-size:53px; text-anchor:middle;" transform="rotate(0, 662.319, 1426.11)" x="662.319" y="1426.11">0.5</text>
</g>
<g clip-path="url(#clip600)">
<text style="fill:#000000; fill-opacity:1; font-family:Arial,Helvetica Neue,Helvetica,sans-serif; font-size:53px; text-anchor:middle;" transform="rotate(0, 1069.65, 1426.11)" x="1069.65" y="1426.11">1.0</text>
</g>
<g clip-path="url(#clip600)">
<text style="fill:#000000; fill-opacity:1; font-family:Arial,Helvetica Neue,Helvetica,sans-serif; font-size:53px; text-anchor:middle;" transform="rotate(0, 1476.99, 1426.11)" x="1476.99" y="1426.11">1.5</text>
</g>
<g clip-path="url(#clip600)">
<text style="fill:#000000; fill-opacity:1; font-family:Arial,Helvetica Neue,Helvetica,sans-serif; font-size:53px; text-anchor:middle;" transform="rotate(0, 1884.32, 1426.11)" x="1884.32" y="1426.11">2.0</text>
</g>
<g clip-path="url(#clip600)">
<text style="fill:#000000; fill-opacity:1; font-family:Arial,Helvetica Neue,Helvetica,sans-serif; font-size:53px; text-anchor:middle;" transform="rotate(0, 2291.66, 1426.11)" x="2291.66" y="1426.11">2.5</text>
</g>
<g clip-path="url(#clip600)">
<text style="fill:#000000; fill-opacity:1; font-family:Arial,Helvetica Neue,Helvetica,sans-serif; font-size:53px; text-anchor:end;" transform="rotate(0, 169.885, 1137.35)" x="169.885" y="1137.35">-5.0</text>
</g>
<g clip-path="url(#clip600)">
<text style="fill:#000000; fill-opacity:1; font-family:Arial,Helvetica Neue,Helvetica,sans-serif; font-size:53px; text-anchor:end;" transform="rotate(0, 169.885, 861.82)" x="169.885" y="861.82">-4.5</text>
</g>
<g clip-path="url(#clip600)">
<text style="fill:#000000; fill-opacity:1; font-family:Arial,Helvetica Neue,Helvetica,sans-serif; font-size:53px; text-anchor:end;" transform="rotate(0, 169.885, 586.287)" x="169.885" y="586.287">-4.0</text>
</g>
<g clip-path="url(#clip600)">
<text style="fill:#000000; fill-opacity:1; font-family:Arial,Helvetica Neue,Helvetica,sans-serif; font-size:53px; text-anchor:end;" transform="rotate(0, 169.885, 310.754)" x="169.885" y="310.754">-3.5</text>
</g>
<polyline clip-path="url(#clip602)" style="stroke:#009af9; stroke-width:4.8; stroke-opacity:1; fill:none" points="
  254.985,1117.85 263.132,1107 271.279,1096.47 279.425,1086.26 287.572,1076.38 295.719,1066.81 303.865,1057.56 312.012,1048.62 320.159,1039.98 328.305,1031.65 
  336.452,1023.62 344.599,1015.89 352.745,1008.45 360.892,1001.3 369.039,994.445 377.185,987.871 385.332,981.577 393.479,975.561 401.625,969.819 409.772,964.349 
  417.919,959.146 426.066,954.208 434.212,949.531 442.359,945.112 450.506,940.948 458.652,937.035 466.799,933.37 474.946,929.949 483.092,926.77 491.239,923.829 
  499.386,921.123 507.532,918.648 515.679,916.401 523.826,914.379 531.972,912.579 540.119,910.997 548.266,909.63 556.412,908.474 564.559,907.527 572.706,906.785 
  580.852,906.244 588.999,905.902 597.146,905.755 605.293,905.799 613.439,906.032 621.586,906.451 629.733,907.051 637.879,907.829 646.026,908.783 654.173,909.909 
  662.319,911.204 670.466,912.663 678.613,914.285 686.759,916.066 694.906,918.002 703.053,920.089 711.199,922.326 719.346,924.709 727.493,927.233 735.639,929.896 
  743.786,932.695 751.933,935.626 760.079,938.686 768.226,941.872 776.373,945.18 784.52,948.607 792.666,952.15 800.813,955.805 808.96,959.57 817.106,963.44 
  825.253,967.412 833.4,971.484 841.546,975.652 849.693,979.912 857.84,984.262 865.986,988.697 874.133,993.215 882.28,997.813 890.426,1002.49 898.573,1007.23 
  906.72,1012.05 914.866,1016.93 923.013,1021.88 931.16,1026.88 939.306,1031.94 947.453,1037.05 955.6,1042.22 963.747,1047.43 971.893,1052.68 980.04,1057.97 
  988.187,1063.3 996.333,1068.66 1004.48,1074.05 1012.63,1079.47 1020.77,1084.91 1028.92,1090.37 1037.07,1095.85 1045.21,1101.34 1053.36,1106.84 1061.51,1112.34 
  1069.65,1117.85 1077.8,1123.36 1085.95,1128.87 1094.09,1134.37 1102.24,1139.86 1110.39,1145.34 1118.53,1150.8 1126.68,1156.24 1134.83,1161.66 1142.97,1167.05 
  1151.12,1172.41 1159.27,1177.74 1167.41,1183.03 1175.56,1188.28 1183.71,1193.49 1191.85,1198.65 1200,1203.77 1208.15,1208.83 1216.29,1213.83 1224.44,1218.78 
  1232.59,1223.66 1240.73,1228.47 1248.88,1233.22 1257.03,1237.89 1265.17,1242.49 1273.32,1247.01 1281.47,1251.44 1289.61,1255.79 1297.76,1260.05 1305.91,1264.22 
  1314.05,1268.29 1322.2,1272.27 1330.35,1276.14 1338.49,1279.9 1346.64,1283.56 1354.79,1287.1 1362.93,1290.53 1371.08,1293.83 1379.23,1297.02 1387.37,1300.08 
  1395.52,1303.01 1403.67,1305.81 1411.81,1308.47 1419.96,1311 1428.11,1313.38 1436.25,1315.62 1444.4,1317.71 1452.55,1319.64 1460.69,1321.42 1468.84,1323.04 
  1476.99,1324.5 1485.13,1325.8 1493.28,1326.92 1501.43,1327.88 1509.57,1328.66 1517.72,1329.26 1525.87,1329.67 1534.01,1329.91 1542.16,1329.95 1550.31,1329.8 
  1558.45,1329.46 1566.6,1328.92 1574.75,1328.18 1582.89,1327.23 1591.04,1326.08 1599.19,1324.71 1607.33,1323.13 1615.48,1321.33 1623.63,1319.31 1631.77,1317.06 
  1639.92,1314.58 1648.07,1311.88 1656.21,1308.94 1664.36,1305.76 1672.51,1302.34 1680.65,1298.67 1688.8,1294.76 1696.95,1290.59 1705.09,1286.18 1713.24,1281.5 
  1721.39,1276.56 1729.53,1271.36 1737.68,1265.89 1745.83,1260.15 1753.97,1254.13 1762.12,1247.84 1770.27,1241.26 1778.41,1234.4 1786.56,1227.26 1794.71,1219.82 
  1802.85,1212.09 1811,1204.06 1819.15,1195.73 1827.29,1187.09 1835.44,1178.15 1843.59,1168.9 1851.73,1159.33 1859.88,1149.44 1868.03,1139.24 1876.17,1128.71 
  1884.32,1117.85 1892.47,1106.67 1900.62,1095.14 1908.76,1083.29 1916.91,1071.09 1925.06,1058.54 1933.2,1045.65 1941.35,1032.41 1949.5,1018.82 1957.64,1004.87 
  1965.79,990.557 1973.94,975.882 1982.08,960.839 1990.23,945.426 1998.38,929.64 2006.52,913.477 2014.67,896.933 2022.82,880.006 2030.96,862.692 2039.11,844.988 
  2047.26,826.89 2055.4,808.396 2063.55,789.502 2071.7,770.204 2079.84,750.499 2087.99,730.385 2096.14,709.857 2104.28,688.913 2112.43,667.549 2120.58,645.761 
  2128.72,623.547 2136.87,600.903 2145.02,577.826 2153.16,554.313 2161.31,530.36 2169.46,505.963 2177.6,481.121 2185.75,455.828 2193.9,430.083 2202.04,403.882 
  2210.19,377.221 2218.34,350.097 2226.48,322.506 2234.63,294.447 2242.78,265.914 2250.92,236.905 2259.07,207.417 2267.22,177.446 2275.36,146.99 2283.51,116.043 
  2291.66,84.6045 
  "/>
</svg>
