<?xml version="1.0" encoding="utf-8"?>
<svg xmlns="http://www.w3.org/2000/svg" xmlns:xlink="http://www.w3.org/1999/xlink" width="600" height="370" viewBox="0 0 2400 1480">
<defs>
  <clipPath id="clip800">
    <rect x="0" y="0" width="2400" height="1480"/>
  </clipPath>
</defs>
<path clip-path="url(#clip800)" d="
M0 1480 L2400 1480 L2400 0 L0 0  Z
  " fill="#ffffff" fill-rule="evenodd" fill-opacity="1"/>
<defs>
  <clipPath id="clip801">
    <rect x="480" y="0" width="1681" height="1480"/>
  </clipPath>
</defs>
<path clip-path="url(#clip800)" d="
M193.885 1367.31 L2352.76 1367.31 L2352.76 47.2441 L193.885 47.2441  Z
  " fill="#ffffff" fill-rule="evenodd" fill-opacity="1"/>
<defs>
  <clipPath id="clip802">
    <rect x="193" y="47" width="2160" height="1321"/>
  </clipPath>
</defs>
<polyline clip-path="url(#clip802)" style="stroke:#000000; stroke-width:2; stroke-opacity:0.1; fill:none" points="
  252.439,1367.31 252.439,47.2441 
  "/>
<polyline clip-path="url(#clip802)" style="stroke:#000000; stroke-width:2; stroke-opacity:0.1; fill:none" points="
  761.607,1367.31 761.607,47.2441 
  "/>
<polyline clip-path="url(#clip802)" style="stroke:#000000; stroke-width:2; stroke-opacity:0.1; fill:none" points="
  1270.77,1367.31 1270.77,47.2441 
  "/>
<polyline clip-path="url(#clip802)" style="stroke:#000000; stroke-width:2; stroke-opacity:0.1; fill:none" points="
  1779.94,1367.31 1779.94,47.2441 
  "/>
<polyline clip-path="url(#clip802)" style="stroke:#000000; stroke-width:2; stroke-opacity:0.1; fill:none" points="
  2289.11,1367.31 2289.11,47.2441 
  "/>
<polyline clip-path="url(#clip802)" style="stroke:#000000; stroke-width:2; stroke-opacity:0.1; fill:none" points="
  193.885,1189.66 2352.76,1189.66 
  "/>
<polyline clip-path="url(#clip802)" style="stroke:#000000; stroke-width:2; stroke-opacity:0.1; fill:none" points="
  193.885,983.564 2352.76,983.564 
  "/>
<polyline clip-path="url(#clip802)" style="stroke:#000000; stroke-width:2; stroke-opacity:0.1; fill:none" points="
  193.885,777.466 2352.76,777.466 
  "/>
<polyline clip-path="url(#clip802)" style="stroke:#000000; stroke-width:2; stroke-opacity:0.1; fill:none" points="
  193.885,571.369 2352.76,571.369 
  "/>
<polyline clip-path="url(#clip802)" style="stroke:#000000; stroke-width:2; stroke-opacity:0.1; fill:none" points="
  193.885,365.271 2352.76,365.271 
  "/>
<polyline clip-path="url(#clip802)" style="stroke:#000000; stroke-width:2; stroke-opacity:0.1; fill:none" points="
  193.885,159.174 2352.76,159.174 
  "/>
<polyline clip-path="url(#clip800)" style="stroke:#000000; stroke-width:4; stroke-opacity:1; fill:none" points="
  193.885,1367.31 2352.76,1367.31 
  "/>
<polyline clip-path="url(#clip800)" style="stroke:#000000; stroke-width:4; stroke-opacity:1; fill:none" points="
  193.885,1367.31 193.885,47.2441 
  "/>
<polyline clip-path="url(#clip800)" style="stroke:#000000; stroke-width:4; stroke-opacity:1; fill:none" points="
  252.439,1367.31 252.439,1351.47 
  "/>
<polyline clip-path="url(#clip800)" style="stroke:#000000; stroke-width:4; stroke-opacity:1; fill:none" points="
  761.607,1367.31 761.607,1351.47 
  "/>
<polyline clip-path="url(#clip800)" style="stroke:#000000; stroke-width:4; stroke-opacity:1; fill:none" points="
  1270.77,1367.31 1270.77,1351.47 
  "/>
<polyline clip-path="url(#clip800)" style="stroke:#000000; stroke-width:4; stroke-opacity:1; fill:none" points="
  1779.94,1367.31 1779.94,1351.47 
  "/>
<polyline clip-path="url(#clip800)" style="stroke:#000000; stroke-width:4; stroke-opacity:1; fill:none" points="
  2289.11,1367.31 2289.11,1351.47 
  "/>
<polyline clip-path="url(#clip800)" style="stroke:#000000; stroke-width:4; stroke-opacity:1; fill:none" points="
  354.273,1367.31 354.273,1359.39 
  "/>
<polyline clip-path="url(#clip800)" style="stroke:#000000; stroke-width:4; stroke-opacity:1; fill:none" points="
  456.106,1367.31 456.106,1359.39 
  "/>
<polyline clip-path="url(#clip800)" style="stroke:#000000; stroke-width:4; stroke-opacity:1; fill:none" points="
  557.94,1367.31 557.94,1359.39 
  "/>
<polyline clip-path="url(#clip800)" style="stroke:#000000; stroke-width:4; stroke-opacity:1; fill:none" points="
  659.773,1367.31 659.773,1359.39 
  "/>
<polyline clip-path="url(#clip800)" style="stroke:#000000; stroke-width:4; stroke-opacity:1; fill:none" points="
  863.441,1367.31 863.441,1359.39 
  "/>
<polyline clip-path="url(#clip800)" style="stroke:#000000; stroke-width:4; stroke-opacity:1; fill:none" points="
  965.274,1367.31 965.274,1359.39 
  "/>
<polyline clip-path="url(#clip800)" style="stroke:#000000; stroke-width:4; stroke-opacity:1; fill:none" points="
  1067.11,1367.31 1067.11,1359.39 
  "/>
<polyline clip-path="url(#clip800)" style="stroke:#000000; stroke-width:4; stroke-opacity:1; fill:none" points="
  1168.94,1367.31 1168.94,1359.39 
  "/>
<polyline clip-path="url(#clip800)" style="stroke:#000000; stroke-width:4; stroke-opacity:1; fill:none" points="
  1372.61,1367.31 1372.61,1359.39 
  "/>
<polyline clip-path="url(#clip800)" style="stroke:#000000; stroke-width:4; stroke-opacity:1; fill:none" points="
  1474.44,1367.31 1474.44,1359.39 
  "/>
<polyline clip-path="url(#clip800)" style="stroke:#000000; stroke-width:4; stroke-opacity:1; fill:none" points="
  1576.28,1367.31 1576.28,1359.39 
  "/>
<polyline clip-path="url(#clip800)" style="stroke:#000000; stroke-width:4; stroke-opacity:1; fill:none" points="
  1678.11,1367.31 1678.11,1359.39 
  "/>
<polyline clip-path="url(#clip800)" style="stroke:#000000; stroke-width:4; stroke-opacity:1; fill:none" points="
  1881.78,1367.31 1881.78,1359.39 
  "/>
<polyline clip-path="url(#clip800)" style="stroke:#000000; stroke-width:4; stroke-opacity:1; fill:none" points="
  1983.61,1367.31 1983.61,1359.39 
  "/>
<polyline clip-path="url(#clip800)" style="stroke:#000000; stroke-width:4; stroke-opacity:1; fill:none" points="
  2085.44,1367.31 2085.44,1359.39 
  "/>
<polyline clip-path="url(#clip800)" style="stroke:#000000; stroke-width:4; stroke-opacity:1; fill:none" points="
  2187.28,1367.31 2187.28,1359.39 
  "/>
<polyline clip-path="url(#clip800)" style="stroke:#000000; stroke-width:4; stroke-opacity:1; fill:none" points="
  193.885,1189.66 219.792,1189.66 
  "/>
<polyline clip-path="url(#clip800)" style="stroke:#000000; stroke-width:4; stroke-opacity:1; fill:none" points="
  193.885,983.564 219.792,983.564 
  "/>
<polyline clip-path="url(#clip800)" style="stroke:#000000; stroke-width:4; stroke-opacity:1; fill:none" points="
  193.885,777.466 219.792,777.466 
  "/>
<polyline clip-path="url(#clip800)" style="stroke:#000000; stroke-width:4; stroke-opacity:1; fill:none" points="
  193.885,571.369 219.792,571.369 
  "/>
<polyline clip-path="url(#clip800)" style="stroke:#000000; stroke-width:4; stroke-opacity:1; fill:none" points="
  193.885,365.271 219.792,365.271 
  "/>
<polyline clip-path="url(#clip800)" style="stroke:#000000; stroke-width:4; stroke-opacity:1; fill:none" points="
  193.885,159.174 219.792,159.174 
  "/>
<polyline clip-path="url(#clip800)" style="stroke:#000000; stroke-width:4; stroke-opacity:1; fill:none" points="
  193.885,1354.54 206.838,1354.54 
  "/>
<polyline clip-path="url(#clip800)" style="stroke:#000000; stroke-width:4; stroke-opacity:1; fill:none" points="
  193.885,1313.32 206.838,1313.32 
  "/>
<polyline clip-path="url(#clip800)" style="stroke:#000000; stroke-width:4; stroke-opacity:1; fill:none" points="
  193.885,1272.1 206.838,1272.1 
  "/>
<polyline clip-path="url(#clip800)" style="stroke:#000000; stroke-width:4; stroke-opacity:1; fill:none" points="
  193.885,1230.88 206.838,1230.88 
  "/>
<polyline clip-path="url(#clip800)" style="stroke:#000000; stroke-width:4; stroke-opacity:1; fill:none" points="
  193.885,1148.44 206.838,1148.44 
  "/>
<polyline clip-path="url(#clip800)" style="stroke:#000000; stroke-width:4; stroke-opacity:1; fill:none" points="
  193.885,1107.22 206.838,1107.22 
  "/>
<polyline clip-path="url(#clip800)" style="stroke:#000000; stroke-width:4; stroke-opacity:1; fill:none" points="
  193.885,1066 206.838,1066 
  "/>
<polyline clip-path="url(#clip800)" style="stroke:#000000; stroke-width:4; stroke-opacity:1; fill:none" points="
  193.885,1024.78 206.838,1024.78 
  "/>
<polyline clip-path="url(#clip800)" style="stroke:#000000; stroke-width:4; stroke-opacity:1; fill:none" points="
  193.885,942.344 206.838,942.344 
  "/>
<polyline clip-path="url(#clip800)" style="stroke:#000000; stroke-width:4; stroke-opacity:1; fill:none" points="
  193.885,901.125 206.838,901.125 
  "/>
<polyline clip-path="url(#clip800)" style="stroke:#000000; stroke-width:4; stroke-opacity:1; fill:none" points="
  193.885,859.905 206.838,859.905 
  "/>
<polyline clip-path="url(#clip800)" style="stroke:#000000; stroke-width:4; stroke-opacity:1; fill:none" points="
  193.885,818.686 206.838,818.686 
  "/>
<polyline clip-path="url(#clip800)" style="stroke:#000000; stroke-width:4; stroke-opacity:1; fill:none" points="
  193.885,736.247 206.838,736.247 
  "/>
<polyline clip-path="url(#clip800)" style="stroke:#000000; stroke-width:4; stroke-opacity:1; fill:none" points="
  193.885,695.027 206.838,695.027 
  "/>
<polyline clip-path="url(#clip800)" style="stroke:#000000; stroke-width:4; stroke-opacity:1; fill:none" points="
  193.885,653.808 206.838,653.808 
  "/>
<polyline clip-path="url(#clip800)" style="stroke:#000000; stroke-width:4; stroke-opacity:1; fill:none" points="
  193.885,612.588 206.838,612.588 
  "/>
<polyline clip-path="url(#clip800)" style="stroke:#000000; stroke-width:4; stroke-opacity:1; fill:none" points="
  193.885,530.149 206.838,530.149 
  "/>
<polyline clip-path="url(#clip800)" style="stroke:#000000; stroke-width:4; stroke-opacity:1; fill:none" points="
  193.885,488.93 206.838,488.93 
  "/>
<polyline clip-path="url(#clip800)" style="stroke:#000000; stroke-width:4; stroke-opacity:1; fill:none" points="
  193.885,447.71 206.838,447.71 
  "/>
<polyline clip-path="url(#clip800)" style="stroke:#000000; stroke-width:4; stroke-opacity:1; fill:none" points="
  193.885,406.491 206.838,406.491 
  "/>
<polyline clip-path="url(#clip800)" style="stroke:#000000; stroke-width:4; stroke-opacity:1; fill:none" points="
  193.885,324.052 206.838,324.052 
  "/>
<polyline clip-path="url(#clip800)" style="stroke:#000000; stroke-width:4; stroke-opacity:1; fill:none" points="
  193.885,282.832 206.838,282.832 
  "/>
<polyline clip-path="url(#clip800)" style="stroke:#000000; stroke-width:4; stroke-opacity:1; fill:none" points="
  193.885,241.613 206.838,241.613 
  "/>
<polyline clip-path="url(#clip800)" style="stroke:#000000; stroke-width:4; stroke-opacity:1; fill:none" points="
  193.885,200.393 206.838,200.393 
  "/>
<polyline clip-path="url(#clip800)" style="stroke:#000000; stroke-width:4; stroke-opacity:1; fill:none" points="
  193.885,117.954 206.838,117.954 
  "/>
<polyline clip-path="url(#clip800)" style="stroke:#000000; stroke-width:4; stroke-opacity:1; fill:none" points="
  193.885,76.7347 206.838,76.7347 
  "/>
<g clip-path="url(#clip800)">
<text style="fill:#000000; fill-opacity:1; font-family:Arial,Helvetica Neue,Helvetica,sans-serif; font-size:53px; text-anchor:middle;" transform="rotate(0, 252.439, 1426.11)" x="252.439" y="1426.11">0</text>
</g>
<g clip-path="url(#clip800)">
<text style="fill:#000000; fill-opacity:1; font-family:Arial,Helvetica Neue,Helvetica,sans-serif; font-size:53px; text-anchor:middle;" transform="rotate(0, 761.607, 1426.11)" x="761.607" y="1426.11">2</text>
</g>
<g clip-path="url(#clip800)">
<text style="fill:#000000; fill-opacity:1; font-family:Arial,Helvetica Neue,Helvetica,sans-serif; font-size:53px; text-anchor:middle;" transform="rotate(0, 1270.77, 1426.11)" x="1270.77" y="1426.11">4</text>
</g>
<g clip-path="url(#clip800)">
<text style="fill:#000000; fill-opacity:1; font-family:Arial,Helvetica Neue,Helvetica,sans-serif; font-size:53px; text-anchor:middle;" transform="rotate(0, 1779.94, 1426.11)" x="1779.94" y="1426.11">6</text>
</g>
<g clip-path="url(#clip800)">
<text style="fill:#000000; fill-opacity:1; font-family:Arial,Helvetica Neue,Helvetica,sans-serif; font-size:53px; text-anchor:middle;" transform="rotate(0, 2289.11, 1426.11)" x="2289.11" y="1426.11">8</text>
</g>
<g clip-path="url(#clip800)">
<text style="fill:#000000; fill-opacity:1; font-family:Arial,Helvetica Neue,Helvetica,sans-serif; font-size:53px; text-anchor:end;" transform="rotate(0, 169.885, 1209.16)" x="169.885" y="1209.16">-0.1</text>
</g>
<g clip-path="url(#clip800)">
<text style="fill:#000000; fill-opacity:1; font-family:Arial,Helvetica Neue,Helvetica,sans-serif; font-size:53px; text-anchor:end;" transform="rotate(0, 169.885, 1003.06)" x="169.885" y="1003.06">0.0</text>
</g>
<g clip-path="url(#clip800)">
<text style="fill:#000000; fill-opacity:1; font-family:Arial,Helvetica Neue,Helvetica,sans-serif; font-size:53px; text-anchor:end;" transform="rotate(0, 169.885, 796.966)" x="169.885" y="796.966">0.1</text>
</g>
<g clip-path="url(#clip800)">
<text style="fill:#000000; fill-opacity:1; font-family:Arial,Helvetica Neue,Helvetica,sans-serif; font-size:53px; text-anchor:end;" transform="rotate(0, 169.885, 590.869)" x="169.885" y="590.869">0.2</text>
</g>
<g clip-path="url(#clip800)">
<text style="fill:#000000; fill-opacity:1; font-family:Arial,Helvetica Neue,Helvetica,sans-serif; font-size:53px; text-anchor:end;" transform="rotate(0, 169.885, 384.771)" x="169.885" y="384.771">0.3</text>
</g>
<g clip-path="url(#clip800)">
<text style="fill:#000000; fill-opacity:1; font-family:Arial,Helvetica Neue,Helvetica,sans-serif; font-size:53px; text-anchor:end;" transform="rotate(0, 169.885, 178.674)" x="169.885" y="178.674">0.4</text>
</g>
<circle clip-path="url(#clip802)" cx="254.985" cy="976.694" r="14" fill="#009af9" fill-rule="evenodd" fill-opacity="1" stroke="#000000" stroke-opacity="1" stroke-width="2.96"/>
<circle clip-path="url(#clip802)" cx="405.19" cy="586.018" r="14" fill="#009af9" fill-rule="evenodd" fill-opacity="1" stroke="#000000" stroke-opacity="1" stroke-width="2.96"/>
<circle clip-path="url(#clip802)" cx="634.315" cy="167.061" r="14" fill="#009af9" fill-rule="evenodd" fill-opacity="1" stroke="#000000" stroke-opacity="1" stroke-width="2.96"/>
<circle clip-path="url(#clip802)" cx="1118.02" cy="443.08" r="14" fill="#009af9" fill-rule="evenodd" fill-opacity="1" stroke="#000000" stroke-opacity="1" stroke-width="2.96"/>
<circle clip-path="url(#clip802)" cx="1398.07" cy="986.51" r="14" fill="#009af9" fill-rule="evenodd" fill-opacity="1" stroke="#000000" stroke-opacity="1" stroke-width="2.96"/>
<circle clip-path="url(#clip802)" cx="1525.36" cy="1179.54" r="14" fill="#009af9" fill-rule="evenodd" fill-opacity="1" stroke="#000000" stroke-opacity="1" stroke-width="2.96"/>
<circle clip-path="url(#clip802)" cx="1830.86" cy="1319.28" r="14" fill="#009af9" fill-rule="evenodd" fill-opacity="1" stroke="#000000" stroke-opacity="1" stroke-width="2.96"/>
<circle clip-path="url(#clip802)" cx="2161.82" cy="1044.45" r="14" fill="#009af9" fill-rule="evenodd" fill-opacity="1" stroke="#000000" stroke-opacity="1" stroke-width="2.96"/>
<circle clip-path="url(#clip802)" cx="2291.66" cy="911.851" r="14" fill="#009af9" fill-rule="evenodd" fill-opacity="1" stroke="#000000" stroke-opacity="1" stroke-width="2.96"/>
<polyline clip-path="url(#clip802)" style="stroke:#e26f46; stroke-width:4.8; stroke-opacity:1; fill:none" points="
  254.985,976.694 257.531,969.825 260.077,962.956 262.623,956.089 265.169,949.223 267.714,942.359 270.26,935.498 272.806,928.64 275.352,921.785 277.898,914.933 
  280.444,908.086 282.989,901.244 285.535,894.406 288.081,887.573 290.627,880.747 293.173,873.926 295.719,867.113 298.264,860.306 300.81,853.506 303.356,846.714 
  305.902,839.931 308.448,833.156 310.994,826.39 313.539,819.634 316.085,812.887 318.631,806.151 321.177,799.425 323.723,792.71 326.269,786.007 328.814,779.315 
  331.36,772.636 333.906,765.969 336.452,759.316 338.998,752.676 341.544,746.049 344.09,739.437 346.635,732.84 349.181,726.257 351.727,719.69 354.273,713.139 
  356.819,706.604 359.365,700.085 361.91,693.584 364.456,687.099 367.002,680.633 369.548,674.184 372.094,667.754 374.64,661.343 377.185,654.951 379.731,648.579 
  382.277,642.227 384.823,635.895 387.369,629.584 389.915,623.294 392.46,617.025 395.006,610.779 397.552,604.554 400.098,598.353 402.644,592.174 405.19,586.018 
  407.735,579.887 410.281,573.779 412.827,567.695 415.373,561.637 417.919,555.603 420.465,549.595 423.01,543.613 425.556,537.657 428.102,531.728 430.648,525.825 
  433.194,519.949 435.74,514.101 438.286,508.281 440.831,502.49 443.377,496.726 445.923,490.992 448.469,485.287 451.015,479.611 453.561,473.965 456.106,468.35 
  458.652,462.765 461.198,457.211 463.744,451.688 466.29,446.196 468.836,440.737 471.381,435.309 473.927,429.914 476.473,424.551 479.019,419.222 481.565,413.926 
  484.111,408.663 486.656,403.435 489.202,398.24 491.748,393.081 494.294,387.956 496.84,382.866 499.386,377.811 501.931,372.792 504.477,367.809 507.023,362.863 
  509.569,357.953 512.115,353.079 514.661,348.243 517.207,343.444 519.752,338.682 522.298,333.959 524.844,329.273 527.39,324.626 529.936,320.017 532.482,315.447 
  535.027,310.917 537.573,306.426 540.119,301.974 542.665,297.562 545.211,293.19 547.757,288.859 550.302,284.568 552.848,280.318 555.394,276.109 557.94,271.941 
  560.486,267.814 563.032,263.73 565.577,259.687 568.123,255.686 570.669,251.727 573.215,247.811 575.761,243.938 578.307,240.108 580.852,236.321 583.398,232.577 
  585.944,228.876 588.49,225.219 591.036,221.606 593.582,218.037 596.127,214.513 598.673,211.032 601.219,207.597 603.765,204.206 606.311,200.86 608.857,197.559 
  611.403,194.303 613.948,191.093 616.494,187.928 619.04,184.809 621.586,181.735 624.132,178.708 626.678,175.727 629.223,172.792 631.769,169.903 634.315,167.061 
  636.861,164.266 639.407,161.517 641.953,158.816 644.498,156.161 647.044,153.553 649.59,150.993 652.136,148.48 654.682,146.015 657.228,143.597 659.773,141.226 
  662.319,138.904 664.865,136.629 667.411,134.403 669.957,132.224 672.503,130.093 675.048,128.011 677.594,125.977 680.14,123.991 682.686,122.054 685.232,120.165 
  687.778,118.324 690.324,116.532 692.869,114.789 695.415,113.095 697.961,111.449 700.507,109.852 703.053,108.304 705.599,106.805 708.144,105.354 710.69,103.953 
  713.236,102.6 715.782,101.297 718.328,100.042 720.874,98.8368 723.419,97.6804 725.965,96.5731 728.511,95.5148 731.057,94.5056 733.603,93.5454 736.149,92.6344 
  738.694,91.7724 741.24,90.9594 743.786,90.1955 746.332,89.4806 748.878,88.8148 751.424,88.1979 753.969,87.63 756.515,87.111 759.061,86.641 761.607,86.2198 
  764.153,85.8475 766.699,85.5239 769.245,85.2491 771.79,85.023 774.336,84.8455 776.882,84.7167 779.428,84.6364 781.974,84.6045 784.52,84.6211 787.065,84.686 
  789.611,84.7992 792.157,84.9606 794.703,85.1701 797.249,85.4276 799.795,85.7331 802.34,86.0865 804.886,86.4877 807.432,86.9365 809.978,87.433 812.524,87.9769 
  815.07,88.5682 817.615,89.2068 820.161,89.8926 822.707,90.6255 825.253,91.4053 827.799,92.2319 830.345,93.1052 832.89,94.0252 835.436,94.9915 837.982,96.0043 
  840.528,97.0631 843.074,98.1681 845.62,99.319 848.165,100.516 850.711,101.758 853.257,103.046 855.803,104.379 858.349,105.757 860.895,107.18 863.441,108.648 
  865.986,110.161 868.532,111.718 871.078,113.32 873.624,114.966 876.17,116.656 878.716,118.39 881.261,120.167 883.807,121.988 886.353,123.852 888.899,125.759 
  891.445,127.709 893.991,129.702 896.536,131.737 899.082,133.815 901.628,135.935 904.174,138.096 906.72,140.3 909.266,142.545 911.811,144.831 914.357,147.158 
  916.903,149.526 919.449,151.934 921.995,154.383 924.541,156.873 927.086,159.402 929.632,161.97 932.178,164.579 934.724,167.226 937.27,169.913 939.816,172.638 
  942.362,175.402 944.907,178.204 947.453,181.044 949.999,183.922 952.545,186.837 955.091,189.79 957.637,192.779 960.182,195.806 962.728,198.869 965.274,201.968 
  967.82,205.103 970.366,208.274 972.912,211.48 975.457,214.721 978.003,217.997 980.549,221.308 983.095,224.653 985.641,228.032 988.187,231.445 990.732,234.891 
  993.278,238.371 995.824,241.883 998.37,245.428 1000.92,249.005 1003.46,252.615 1006.01,256.256 1008.55,259.928 1011.1,263.632 1013.64,267.366 1016.19,271.131 
  1018.74,274.926 1021.28,278.751 1023.83,282.606 1026.37,286.49 1028.92,290.403 1031.47,294.344 1034.01,298.314 1036.56,302.312 1039.1,306.338 1041.65,310.391 
  1044.2,314.471 1046.74,318.578 1049.29,322.711 1051.83,326.87 1054.38,331.055 1056.92,335.266 1059.47,339.502 1062.02,343.762 1064.56,348.047 1067.11,352.356 
  1069.65,356.689 1072.2,361.045 1074.75,365.425 1077.29,369.827 1079.84,374.252 1082.38,378.698 1084.93,383.167 1087.47,387.657 1090.02,392.168 1092.57,396.699 
  1095.11,401.251 1097.66,405.823 1100.2,410.415 1102.75,415.026 1105.3,419.657 1107.84,424.305 1110.39,428.972 1112.93,433.657 1115.48,438.36 1118.02,443.08 
  1120.57,447.816 1123.12,452.57 1125.66,457.339 1128.21,462.124 1130.75,466.925 1133.3,471.741 1135.85,476.571 1138.39,481.416 1140.94,486.275 1143.48,491.148 
  1146.03,496.034 1148.57,500.933 1151.12,505.845 1153.67,510.768 1156.21,515.704 1158.76,520.651 1161.3,525.61 1163.85,530.579 1166.4,535.558 1168.94,540.548 
  1171.49,545.547 1174.03,550.556 1176.58,555.574 1179.12,560.6 1181.67,565.635 1184.22,570.678 1186.76,575.728 1189.31,580.785 1191.85,585.849 1194.4,590.92 
  1196.95,595.996 1199.49,601.079 1202.04,606.167 1204.58,611.259 1207.13,616.357 1209.67,621.459 1212.22,626.564 1214.77,631.674 1217.31,636.786 1219.86,641.902 
  1222.4,647.02 1224.95,652.14 1227.5,657.261 1230.04,662.385 1232.59,667.509 1235.13,672.634 1237.68,677.76 1240.22,682.885 1242.77,688.01 1245.32,693.134 
  1247.86,698.258 1250.41,703.38 1252.95,708.5 1255.5,713.618 1258.05,718.734 1260.59,723.846 1263.14,728.956 1265.68,734.062 1268.23,739.164 1270.77,744.263 
  1273.32,749.356 1275.87,754.445 1278.41,759.528 1280.96,764.606 1283.5,769.678 1286.05,774.744 1288.6,779.803 1291.14,784.855 1293.69,789.9 1296.23,794.937 
  1298.78,799.967 1301.32,804.988 1303.87,810 1306.42,815.004 1308.96,819.998 1311.51,824.983 1314.05,829.958 1316.6,834.923 1319.15,839.877 1321.69,844.82 
  1324.24,849.752 1326.78,854.672 1329.33,859.581 1331.87,864.477 1334.42,869.361 1336.97,874.232 1339.51,879.09 1342.06,883.934 1344.6,888.765 1347.15,893.582 
  1349.7,898.385 1352.24,903.172 1354.79,907.945 1357.33,912.703 1359.88,917.445 1362.42,922.171 1364.97,926.881 1367.52,931.575 1370.06,936.251 1372.61,940.911 
  1375.15,945.554 1377.7,950.179 1380.25,954.786 1382.79,959.375 1385.34,963.945 1387.88,968.497 1390.43,973.029 1392.97,977.543 1395.52,982.036 1398.07,986.51 
  1400.61,990.964 1403.16,995.398 1405.7,999.81 1408.25,1004.2 1410.8,1008.57 1413.34,1012.92 1415.89,1017.25 1418.43,1021.56 1420.98,1025.84 1423.52,1030.1 
  1426.07,1034.34 1428.62,1038.55 1431.16,1042.75 1433.71,1046.92 1436.25,1051.06 1438.8,1055.18 1441.35,1059.28 1443.89,1063.35 1446.44,1067.4 1448.98,1071.42 
  1451.53,1075.42 1454.07,1079.39 1456.62,1083.34 1459.17,1087.26 1461.71,1091.16 1464.26,1095.03 1466.8,1098.87 1469.35,1102.69 1471.9,1106.48 1474.44,1110.24 
  1476.99,1113.98 1479.53,1117.69 1482.08,1121.37 1484.63,1125.02 1487.17,1128.65 1489.72,1132.24 1492.26,1135.81 1494.81,1139.35 1497.35,1142.86 1499.9,1146.34 
  1502.45,1149.8 1504.99,1153.22 1507.54,1156.62 1510.08,1159.98 1512.63,1163.32 1515.18,1166.62 1517.72,1169.9 1520.27,1173.14 1522.81,1176.36 1525.36,1179.54 
  1527.9,1182.69 1530.45,1185.82 1533,1188.91 1535.54,1191.97 1538.09,1195 1540.63,1198 1543.18,1200.96 1545.73,1203.9 1548.27,1206.8 1550.82,1209.67 
  1553.36,1212.51 1555.91,1215.31 1558.45,1218.09 1561,1220.83 1563.55,1223.54 1566.09,1226.22 1568.64,1228.86 1571.18,1231.47 1573.73,1234.05 1576.28,1236.59 
  1578.82,1239.1 1581.37,1241.58 1583.91,1244.03 1586.46,1246.44 1589,1248.82 1591.55,1251.16 1594.1,1253.47 1596.64,1255.75 1599.19,1257.99 1601.73,1260.2 
  1604.28,1262.38 1606.83,1264.52 1609.37,1266.63 1611.92,1268.7 1614.46,1270.74 1617.01,1272.74 1619.55,1274.72 1622.1,1276.65 1624.65,1278.55 1627.19,1280.42 
  1629.74,1282.25 1632.28,1284.05 1634.83,1285.81 1637.38,1287.54 1639.92,1289.24 1642.47,1290.9 1645.01,1292.52 1647.56,1294.11 1650.1,1295.67 1652.65,1297.19 
  1655.2,1298.67 1657.74,1300.13 1660.29,1301.54 1662.83,1302.92 1665.38,1304.27 1667.93,1305.58 1670.47,1306.86 1673.02,1308.1 1675.56,1309.31 1678.11,1310.48 
  1680.65,1311.62 1683.2,1312.73 1685.75,1313.79 1688.29,1314.83 1690.84,1315.83 1693.38,1316.79 1695.93,1317.72 1698.48,1318.62 1701.02,1319.48 1703.57,1320.31 
  1706.11,1321.1 1708.66,1321.86 1711.2,1322.58 1713.75,1323.27 1716.3,1323.93 1718.84,1324.55 1721.39,1325.13 1723.93,1325.69 1726.48,1326.2 1729.03,1326.69 
  1731.57,1327.14 1734.12,1327.56 1736.66,1327.94 1739.21,1328.29 1741.75,1328.61 1744.3,1328.89 1746.85,1329.14 1749.39,1329.35 1751.94,1329.54 1754.48,1329.68 
  1757.03,1329.8 1759.58,1329.88 1762.12,1329.93 1764.67,1329.95 1767.21,1329.94 1769.76,1329.89 1772.3,1329.81 1774.85,1329.7 1777.4,1329.55 1779.94,1329.37 
  1782.49,1329.17 1785.03,1328.93 1787.58,1328.65 1790.13,1328.35 1792.67,1328.01 1795.22,1327.65 1797.76,1327.25 1800.31,1326.82 1802.85,1326.36 1805.4,1325.87 
  1807.95,1325.34 1810.49,1324.79 1813.04,1324.21 1815.58,1323.59 1818.13,1322.95 1820.68,1322.28 1823.22,1321.57 1825.77,1320.84 1828.31,1320.08 1830.86,1319.28 
  1833.4,1318.46 1835.95,1317.61 1838.5,1316.73 1841.04,1315.83 1843.59,1314.89 1846.13,1313.92 1848.68,1312.93 1851.23,1311.91 1853.77,1310.86 1856.32,1309.78 
  1858.86,1308.68 1861.41,1307.55 1863.95,1306.39 1866.5,1305.2 1869.05,1303.99 1871.59,1302.75 1874.14,1301.49 1876.68,1300.19 1879.23,1298.88 1881.78,1297.53 
  1884.32,1296.16 1886.87,1294.77 1889.41,1293.35 1891.96,1291.9 1894.51,1290.43 1897.05,1288.94 1899.6,1287.42 1902.14,1285.88 1904.69,1284.31 1907.23,1282.72 
  1909.78,1281.11 1912.33,1279.47 1914.87,1277.81 1917.42,1276.12 1919.96,1274.42 1922.51,1272.69 1925.06,1270.94 1927.6,1269.16 1930.15,1267.37 1932.69,1265.55 
  1935.24,1263.71 1937.78,1261.85 1940.33,1259.97 1942.88,1258.07 1945.42,1256.15 1947.97,1254.21 1950.51,1252.25 1953.06,1250.27 1955.61,1248.27 1958.15,1246.25 
  1960.7,1244.21 1963.24,1242.15 1965.79,1240.08 1968.33,1237.98 1970.88,1235.87 1973.43,1233.74 1975.97,1231.59 1978.52,1229.42 1981.06,1227.24 1983.61,1225.04 
  1986.16,1222.83 1988.7,1220.59 1991.25,1218.34 1993.79,1216.08 1996.34,1213.8 1998.88,1211.5 2001.43,1209.19 2003.98,1206.87 2006.52,1204.53 2009.07,1202.17 
  2011.61,1199.81 2014.16,1197.42 2016.71,1195.03 2019.25,1192.62 2021.8,1190.2 2024.34,1187.76 2026.89,1185.31 2029.43,1182.85 2031.98,1180.38 2034.53,1177.9 
  2037.07,1175.4 2039.62,1172.9 2042.16,1170.38 2044.71,1167.85 2047.26,1165.31 2049.8,1162.76 2052.35,1160.2 2054.89,1157.64 2057.44,1155.06 2059.98,1152.47 
  2062.53,1149.87 2065.08,1147.27 2067.62,1144.66 2070.17,1142.03 2072.71,1139.4 2075.26,1136.77 2077.81,1134.12 2080.35,1131.47 2082.9,1128.81 2085.44,1126.15 
  2087.99,1123.48 2090.53,1120.8 2093.08,1118.12 2095.63,1115.43 2098.17,1112.74 2100.72,1110.04 2103.26,1107.33 2105.81,1104.63 2108.36,1101.91 2110.9,1099.2 
  2113.45,1096.48 2115.99,1093.76 2118.54,1091.03 2121.08,1088.3 2123.63,1085.57 2126.18,1082.83 2128.72,1080.1 2131.27,1077.36 2133.81,1074.62 2136.36,1071.88 
  2138.91,1069.14 2141.45,1066.39 2144,1063.65 2146.54,1060.91 2149.09,1058.16 2151.63,1055.42 2154.18,1052.68 2156.73,1049.93 2159.27,1047.19 2161.82,1044.45 
  2164.36,1041.71 2166.91,1038.97 2169.46,1036.24 2172,1033.5 2174.55,1030.77 2177.09,1028.05 2179.64,1025.32 2182.18,1022.6 2184.73,1019.88 2187.28,1017.16 
  2189.82,1014.45 2192.37,1011.75 2194.91,1009.04 2197.46,1006.34 2200.01,1003.65 2202.55,1000.96 2205.1,998.28 2207.64,995.603 2210.19,992.932 2212.73,990.266 
  2215.28,987.607 2217.83,984.954 2220.37,982.308 2222.92,979.67 2225.46,977.038 2228.01,974.413 2230.56,971.797 2233.1,969.188 2235.65,966.587 2238.19,963.994 
  2240.74,961.411 2243.28,958.835 2245.83,956.269 2248.38,953.712 2250.92,951.164 2253.47,948.626 2256.01,946.098 2258.56,943.58 2261.11,941.072 2263.65,938.575 
  2266.2,936.088 2268.74,933.612 2271.29,931.147 2273.83,928.693 2276.38,926.251 2278.93,923.821 2281.47,921.402 2284.02,918.996 2286.56,916.602 2289.11,914.22 
  2291.66,911.851 
  "/>
<polyline clip-path="url(#clip802)" style="stroke:#3da44d; stroke-width:4.8; stroke-opacity:1; fill:none" points="
  254.985,976.694 257.531,969.825 260.077,962.956 262.623,956.09 265.169,949.224 267.714,942.362 270.26,935.501 272.806,928.644 275.352,921.79 277.898,914.94 
  280.444,908.094 282.989,901.253 285.535,894.416 288.081,887.585 290.627,880.76 293.173,873.941 295.719,867.128 298.264,860.323 300.81,853.525 303.356,846.734 
  305.902,839.952 308.448,833.178 310.994,826.413 313.539,819.658 316.085,812.912 318.631,806.176 321.177,799.451 323.723,792.737 326.269,786.034 328.814,779.343 
  331.36,772.664 333.906,765.997 336.452,759.344 338.998,752.703 341.544,746.077 344.09,739.464 346.635,732.866 349.181,726.283 351.727,719.715 354.273,713.163 
  356.819,706.626 359.365,700.107 361.91,693.604 364.456,687.118 367.002,680.65 369.548,674.2 372.094,667.769 374.64,661.356 377.185,654.963 379.731,648.589 
  382.277,642.235 384.823,635.902 387.369,629.59 389.915,623.298 392.46,617.029 395.006,610.781 397.552,604.556 400.098,598.353 402.644,592.174 405.19,586.018 
  407.735,579.887 410.281,573.782 412.827,567.702 415.373,561.649 417.919,555.622 420.465,549.622 423.01,543.648 425.556,537.702 428.102,531.783 430.648,525.892 
  433.194,520.028 435.74,514.193 438.286,508.387 440.831,502.609 443.377,496.86 445.923,491.14 448.469,485.45 451.015,479.789 453.561,474.158 456.106,468.558 
  458.652,462.988 461.198,457.449 463.744,451.941 466.29,446.464 468.836,441.019 471.381,435.606 473.927,430.224 476.473,424.875 479.019,419.559 481.565,414.275 
  484.111,409.024 486.656,403.807 489.202,398.623 491.748,393.474 494.294,388.358 496.84,383.277 499.386,378.23 501.931,373.218 504.477,368.241 507.023,363.3 
  509.569,358.394 512.115,353.525 514.661,348.691 517.207,343.894 519.752,339.133 522.298,334.41 524.844,329.724 527.39,325.075 529.936,320.464 532.482,315.891 
  535.027,311.356 537.573,306.859 540.119,302.402 542.665,297.983 545.211,293.604 547.757,289.264 550.302,284.964 552.848,280.703 555.394,276.484 557.94,272.304 
  560.486,268.166 563.032,264.069 565.577,260.013 568.123,255.998 570.669,252.026 573.215,248.095 575.761,244.207 578.307,240.361 580.852,236.559 583.398,232.799 
  585.944,229.083 588.49,225.41 591.036,221.782 593.582,218.197 596.127,214.657 598.673,211.162 601.219,207.711 603.765,204.306 606.311,200.946 608.857,197.632 
  611.403,194.364 613.948,191.142 616.494,187.967 619.04,184.838 621.586,181.756 624.132,178.722 626.678,175.735 629.223,172.795 631.769,169.904 634.315,167.061 
  636.861,164.27 639.407,161.534 641.953,158.854 644.498,156.228 647.044,153.657 649.59,151.141 652.136,148.679 654.682,146.272 657.228,143.918 659.773,141.619 
  662.319,139.373 664.865,137.181 667.411,135.042 669.957,132.957 672.503,130.925 675.048,128.946 677.594,127.019 680.14,125.146 682.686,123.324 685.232,121.555 
  687.778,119.838 690.324,118.173 692.869,116.56 695.415,114.999 697.961,113.489 700.507,112.03 703.053,110.623 705.599,109.266 708.144,107.96 710.69,106.705 
  713.236,105.501 715.782,104.346 718.328,103.242 720.874,102.188 723.419,101.184 725.965,100.229 728.511,99.3236 731.057,98.4677 733.603,97.661 736.149,96.9032 
  738.694,96.1943 741.24,95.534 743.786,94.9222 746.332,94.3588 748.878,93.8435 751.424,93.3762 753.969,92.9567 756.515,92.5849 759.061,92.2606 761.607,91.9836 
  764.153,91.7539 766.699,91.5711 769.245,91.4351 771.79,91.3458 774.336,91.3031 776.882,91.3066 779.428,91.3564 781.974,91.4521 784.52,91.5937 787.065,91.781 
  789.611,92.0138 792.157,92.292 794.703,92.6153 797.249,92.9836 799.795,93.3968 802.34,93.8547 804.886,94.3571 807.432,94.9039 809.978,95.4949 812.524,96.1298 
  815.07,96.8087 817.615,97.5312 820.161,98.2973 822.707,99.1067 825.253,99.9593 827.799,100.855 830.345,101.793 832.89,102.775 835.436,103.798 837.982,104.865 
  840.528,105.973 843.074,107.123 845.62,108.315 848.165,109.549 850.711,110.825 853.257,112.142 855.803,113.5 858.349,114.899 860.895,116.339 863.441,117.82 
  865.986,119.341 868.532,120.903 871.078,122.504 873.624,124.146 876.17,125.828 878.716,127.55 881.261,129.311 883.807,131.111 886.353,132.951 888.899,134.83 
  891.445,136.747 893.991,138.704 896.536,140.699 899.082,142.732 901.628,144.804 904.174,146.913 906.72,149.061 909.266,151.246 911.811,153.469 914.357,155.729 
  916.903,158.027 919.449,160.361 921.995,162.733 924.541,165.141 927.086,167.586 929.632,170.067 932.178,172.584 934.724,175.138 937.27,177.727 939.816,180.352 
  942.362,183.013 944.907,185.709 947.453,188.441 949.999,191.207 952.545,194.009 955.091,196.845 957.637,199.716 960.182,202.621 962.728,205.56 965.274,208.534 
  967.82,211.541 970.366,214.583 972.912,217.657 975.457,220.766 978.003,223.907 980.549,227.082 983.095,230.29 985.641,233.53 988.187,236.803 990.732,240.108 
  993.278,243.446 995.824,246.816 998.37,250.217 1000.92,253.651 1003.46,257.116 1006.01,260.613 1008.55,264.14 1011.1,267.699 1013.64,271.289 1016.19,274.91 
  1018.74,278.561 1021.28,282.243 1023.83,285.955 1026.37,289.697 1028.92,293.469 1031.47,297.271 1034.01,301.103 1036.56,304.964 1039.1,308.854 1041.65,312.774 
  1044.2,316.722 1046.74,320.699 1049.29,324.705 1051.83,328.739 1054.38,332.802 1056.92,336.892 1059.47,341.011 1062.02,345.158 1064.56,349.332 1067.11,353.533 
  1069.65,357.762 1072.2,362.018 1074.75,366.301 1077.29,370.611 1079.84,374.948 1082.38,379.311 1084.93,383.7 1087.47,388.115 1090.02,392.557 1092.57,397.024 
  1095.11,401.517 1097.66,406.035 1100.2,410.579 1102.75,415.148 1105.3,419.742 1107.84,424.36 1110.39,429.004 1112.93,433.671 1115.48,438.363 1118.02,443.08 
  1120.57,447.816 1123.12,452.569 1125.66,457.337 1128.21,462.12 1130.75,466.919 1133.3,471.732 1135.85,476.56 1138.39,481.401 1140.94,486.256 1143.48,491.125 
  1146.03,496.006 1148.57,500.9 1151.12,505.806 1153.67,510.724 1156.21,515.654 1158.76,520.595 1161.3,525.547 1163.85,530.51 1166.4,535.482 1168.94,540.465 
  1171.49,545.457 1174.03,550.458 1176.58,555.469 1179.12,560.487 1181.67,565.514 1184.22,570.549 1186.76,575.591 1189.31,580.641 1191.85,585.697 1194.4,590.759 
  1196.95,595.828 1199.49,600.903 1202.04,605.983 1204.58,611.068 1207.13,616.158 1209.67,621.252 1212.22,626.35 1214.77,631.453 1217.31,636.558 1219.86,641.667 
  1222.4,646.778 1224.95,651.892 1227.5,657.007 1230.04,662.125 1232.59,667.244 1235.13,672.363 1237.68,677.484 1240.22,682.605 1242.77,687.725 1245.32,692.846 
  1247.86,697.965 1250.41,703.084 1252.95,708.201 1255.5,713.317 1258.05,718.43 1260.59,723.541 1263.14,728.65 1265.68,733.755 1268.23,738.857 1270.77,743.955 
  1273.32,749.049 1275.87,754.138 1278.41,759.223 1280.96,764.303 1283.5,769.377 1286.05,774.445 1288.6,779.507 1291.14,784.563 1293.69,789.612 1296.23,794.653 
  1298.78,799.687 1301.32,804.714 1303.87,809.732 1306.42,814.741 1308.96,819.742 1311.51,824.733 1314.05,829.715 1316.6,834.687 1319.15,839.648 1321.69,844.599 
  1324.24,849.539 1326.78,854.468 1329.33,859.385 1331.87,864.291 1334.42,869.183 1336.97,874.064 1339.51,878.931 1342.06,883.785 1344.6,888.625 1347.15,893.452 
  1349.7,898.264 1352.24,903.061 1354.79,907.843 1357.33,912.61 1359.88,917.361 1362.42,922.096 1364.97,926.815 1367.52,931.517 1370.06,936.202 1372.61,940.869 
  1375.15,945.519 1377.7,950.15 1380.25,954.763 1382.79,959.358 1385.34,963.933 1387.88,968.489 1390.43,973.025 1392.97,977.541 1395.52,982.036 1398.07,986.51 
  1400.61,990.964 1403.16,995.397 1405.7,999.809 1408.25,1004.2 1410.8,1008.57 1413.34,1012.92 1415.89,1017.24 1418.43,1021.54 1420.98,1025.83 1423.52,1030.08 
  1426.07,1034.32 1428.62,1038.53 1431.16,1042.72 1433.71,1046.89 1436.25,1051.03 1438.8,1055.15 1441.35,1059.25 1443.89,1063.32 1446.44,1067.37 1448.98,1071.39 
  1451.53,1075.38 1454.07,1079.36 1456.62,1083.3 1459.17,1087.22 1461.71,1091.12 1464.26,1094.99 1466.8,1098.83 1469.35,1102.65 1471.9,1106.44 1474.44,1110.21 
  1476.99,1113.94 1479.53,1117.65 1482.08,1121.34 1484.63,1124.99 1487.17,1128.62 1489.72,1132.22 1492.26,1135.79 1494.81,1139.33 1497.35,1142.84 1499.9,1146.33 
  1502.45,1149.78 1504.99,1153.21 1507.54,1156.61 1510.08,1159.97 1512.63,1163.31 1515.18,1166.62 1517.72,1169.9 1520.27,1173.14 1522.81,1176.36 1525.36,1179.54 
  1527.9,1182.69 1530.45,1185.81 1533,1188.89 1535.54,1191.94 1538.09,1194.96 1540.63,1197.94 1543.18,1200.89 1545.73,1203.81 1548.27,1206.69 1550.82,1209.53 
  1553.36,1212.35 1555.91,1215.13 1558.45,1217.87 1561,1220.58 1563.55,1223.26 1566.09,1225.9 1568.64,1228.51 1571.18,1231.09 1573.73,1233.63 1576.28,1236.14 
  1578.82,1238.62 1581.37,1241.06 1583.91,1243.47 1586.46,1245.84 1589,1248.19 1591.55,1250.49 1594.1,1252.77 1596.64,1255.01 1599.19,1257.21 1601.73,1259.39 
  1604.28,1261.53 1606.83,1263.63 1609.37,1265.7 1611.92,1267.74 1614.46,1269.75 1617.01,1271.72 1619.55,1273.66 1622.1,1275.56 1624.65,1277.44 1627.19,1279.28 
  1629.74,1281.08 1632.28,1282.85 1634.83,1284.59 1637.38,1286.29 1639.92,1287.97 1642.47,1289.6 1645.01,1291.21 1647.56,1292.78 1650.1,1294.32 1652.65,1295.82 
  1655.2,1297.3 1657.74,1298.73 1660.29,1300.14 1662.83,1301.51 1665.38,1302.85 1667.93,1304.15 1670.47,1305.43 1673.02,1306.67 1675.56,1307.87 1678.11,1309.05 
  1680.65,1310.19 1683.2,1311.29 1685.75,1312.37 1688.29,1313.41 1690.84,1314.41 1693.38,1315.39 1695.93,1316.33 1698.48,1317.24 1701.02,1318.11 1703.57,1318.95 
  1706.11,1319.76 1708.66,1320.54 1711.2,1321.28 1713.75,1321.99 1716.3,1322.67 1718.84,1323.32 1721.39,1323.93 1723.93,1324.51 1726.48,1325.05 1729.03,1325.56 
  1731.57,1326.04 1734.12,1326.49 1736.66,1326.91 1739.21,1327.29 1741.75,1327.64 1744.3,1327.95 1746.85,1328.24 1749.39,1328.49 1751.94,1328.7 1754.48,1328.89 
  1757.03,1329.04 1759.58,1329.16 1762.12,1329.25 1764.67,1329.3 1767.21,1329.32 1769.76,1329.31 1772.3,1329.27 1774.85,1329.19 1777.4,1329.08 1779.94,1328.94 
  1782.49,1328.77 1785.03,1328.56 1787.58,1328.32 1790.13,1328.05 1792.67,1327.74 1795.22,1327.41 1797.76,1327.04 1800.31,1326.64 1802.85,1326.2 1805.4,1325.73 
  1807.95,1325.24 1810.49,1324.7 1813.04,1324.14 1815.58,1323.54 1818.13,1322.91 1820.68,1322.25 1823.22,1321.56 1825.77,1320.83 1828.31,1320.08 1830.86,1319.28 
  1833.4,1318.46 1835.95,1317.61 1838.5,1316.73 1841.04,1315.82 1843.59,1314.87 1846.13,1313.9 1848.68,1312.9 1851.23,1311.87 1853.77,1310.81 1856.32,1309.73 
  1858.86,1308.61 1861.41,1307.47 1863.95,1306.3 1866.5,1305.1 1869.05,1303.88 1871.59,1302.63 1874.14,1301.35 1876.68,1300.04 1879.23,1298.71 1881.78,1297.35 
  1884.32,1295.97 1886.87,1294.56 1889.41,1293.13 1891.96,1291.67 1894.51,1290.18 1897.05,1288.68 1899.6,1287.14 1902.14,1285.59 1904.69,1284.01 1907.23,1282.4 
  1909.78,1280.77 1912.33,1279.12 1914.87,1277.45 1917.42,1275.75 1919.96,1274.04 1922.51,1272.3 1925.06,1270.53 1927.6,1268.75 1930.15,1266.94 1932.69,1265.12 
  1935.24,1263.27 1937.78,1261.4 1940.33,1259.51 1942.88,1257.6 1945.42,1255.67 1947.97,1253.73 1950.51,1251.76 1953.06,1249.77 1955.61,1247.77 1958.15,1245.74 
  1960.7,1243.7 1963.24,1241.64 1965.79,1239.56 1968.33,1237.46 1970.88,1235.34 1973.43,1233.21 1975.97,1231.06 1978.52,1228.9 1981.06,1226.71 1983.61,1224.51 
  1986.16,1222.3 1988.7,1220.07 1991.25,1217.82 1993.79,1215.56 1996.34,1213.28 1998.88,1210.99 2001.43,1208.68 2003.98,1206.36 2006.52,1204.03 2009.07,1201.68 
  2011.61,1199.32 2014.16,1196.94 2016.71,1194.55 2019.25,1192.15 2021.8,1189.73 2024.34,1187.31 2026.89,1184.87 2029.43,1182.42 2031.98,1179.95 2034.53,1177.48 
  2037.07,1174.99 2039.62,1172.49 2042.16,1169.99 2044.71,1167.47 2047.26,1164.94 2049.8,1162.4 2052.35,1159.85 2054.89,1157.3 2057.44,1154.73 2059.98,1152.15 
  2062.53,1149.57 2065.08,1146.97 2067.62,1144.37 2070.17,1141.76 2072.71,1139.14 2075.26,1136.52 2077.81,1133.89 2080.35,1131.25 2082.9,1128.6 2085.44,1125.95 
  2087.99,1123.29 2090.53,1120.62 2093.08,1117.95 2095.63,1115.27 2098.17,1112.59 2100.72,1109.9 2103.26,1107.21 2105.81,1104.51 2108.36,1101.8 2110.9,1099.1 
  2113.45,1096.39 2115.99,1093.67 2118.54,1090.96 2121.08,1088.23 2123.63,1085.51 2126.18,1082.78 2128.72,1080.05 2131.27,1077.32 2133.81,1074.59 2136.36,1071.85 
  2138.91,1069.12 2141.45,1066.38 2144,1063.64 2146.54,1060.9 2149.09,1058.16 2151.63,1055.41 2154.18,1052.67 2156.73,1049.93 2159.27,1047.19 2161.82,1044.45 
  2164.36,1041.71 2166.91,1038.97 2169.46,1036.24 2172,1033.51 2174.55,1030.78 2177.09,1028.05 2179.64,1025.32 2182.18,1022.6 2184.73,1019.89 2187.28,1017.17 
  2189.82,1014.46 2192.37,1011.76 2194.91,1009.05 2197.46,1006.36 2200.01,1003.67 2202.55,1000.98 2205.1,998.296 2207.64,995.62 2210.19,992.95 2212.73,990.285 
  2215.28,987.626 2217.83,984.974 2220.37,982.329 2222.92,979.69 2225.46,977.059 2228.01,974.434 2230.56,971.817 2233.1,969.208 2235.65,966.607 2238.19,964.014 
  2240.74,961.43 2243.28,958.854 2245.83,956.287 2248.38,953.729 2250.92,951.18 2253.47,948.641 2256.01,946.112 2258.56,943.592 2261.11,941.083 2263.65,938.585 
  2266.2,936.096 2268.74,933.619 2271.29,931.153 2273.83,928.698 2276.38,926.255 2278.93,923.824 2281.47,921.404 2284.02,918.997 2286.56,916.602 2289.11,914.22 
  2291.66,911.851 
  "/>
<path clip-path="url(#clip800)" d="
M1789.26 372.684 L2280.76 372.684 L2280.76 130.764 L1789.26 130.764  Z
  " fill="#ffffff" fill-rule="evenodd" fill-opacity="1"/>
<polyline clip-path="url(#clip800)" style="stroke:#000000; stroke-width:4; stroke-opacity:0; fill:none" points="
  1789.26,372.684 2280.76,372.684 2280.76,130.764 1789.26,130.764 1789.26,372.684 
  "/>
<circle clip-path="url(#clip800)" cx="1897.26" cy="191.244" r="23" fill="#009af9" fill-rule="evenodd" fill-opacity="1" stroke="#000000" stroke-opacity="1" stroke-width="4.736"/>
<g clip-path="url(#clip800)">
<text style="fill:#000000; fill-opacity:1; font-family:Arial,Helvetica Neue,Helvetica,sans-serif; font-size:48px; text-anchor:start;" transform="rotate(0, 1981.26, 208.744)" x="1981.26" y="208.744">input data</text>
</g>
<polyline clip-path="url(#clip800)" style="stroke:#e26f46; stroke-width:4; stroke-opacity:1; fill:none" points="
  1813.26,251.724 1957.26,251.724 
  "/>
<g clip-path="url(#clip800)">
<text style="fill:#000000; fill-opacity:1; font-family:Arial,Helvetica Neue,Helvetica,sans-serif; font-size:48px; text-anchor:start;" transform="rotate(0, 1981.26, 269.224)" x="1981.26" y="269.224">exact</text>
</g>
<polyline clip-path="url(#clip800)" style="stroke:#3da44d; stroke-width:4; stroke-opacity:1; fill:none" points="
  1813.26,312.204 1957.26,312.204 
  "/>
<g clip-path="url(#clip800)">
<text style="fill:#000000; fill-opacity:1; font-family:Arial,Helvetica Neue,Helvetica,sans-serif; font-size:48px; text-anchor:start;" transform="rotate(0, 1981.26, 329.704)" x="1981.26" y="329.704">interpolated</text>
</g>
</svg>
